<svg width="44" height="44" viewBox="0 0 44 44" fill="none" xmlns="http://www.w3.org/2000/svg">
<path d="M21.7391 0.260871C15.9736 0.260871 10.4441 2.55124 6.36725 6.62811C2.29038 10.705 8.83166e-06 16.2344 8.57964e-06 22C8.32762e-06 27.7656 2.29038 33.295 6.36725 37.3719C10.4441 41.4488 15.9736 43.7391 21.7391 43.7391C27.5047 43.7391 33.0341 41.4488 37.111 37.3719C41.1879 33.295 43.4783 27.7656 43.4783 22C43.4783 16.2344 41.1879 10.705 37.111 6.62812C33.0342 2.55124 27.5047 0.260871 21.7391 0.260871ZM31.25 20.6413C31.6104 20.6413 31.9559 20.7845 32.2108 21.0393C32.4656 21.2941 32.6087 21.6397 32.6087 22C32.6087 22.3604 32.4656 22.7059 32.2108 22.9607C31.9559 23.2156 31.6104 23.3587 31.25 23.3587L15.5082 23.3587L21.3424 29.1902C21.5975 29.4453 21.7409 29.7914 21.7409 30.1522C21.7409 30.513 21.5975 30.859 21.3424 31.1141C21.0873 31.3693 20.7412 31.5126 20.3804 31.5126C20.0196 31.5126 19.6736 31.3693 19.4185 31.1141L11.2663 22.962C11.1398 22.8357 11.0394 22.6858 10.9709 22.5207C10.9024 22.3557 10.8671 22.1787 10.8671 22C10.8671 21.8213 10.9024 21.6443 10.9709 21.4793C11.0394 21.3142 11.1398 21.1643 11.2663 21.038L19.4185 12.8859C19.6736 12.6307 20.0196 12.4874 20.3804 12.4874C20.7412 12.4874 21.0873 12.6307 21.3424 12.8859C21.5975 13.141 21.7409 13.487 21.7409 13.8478C21.7409 14.2086 21.5975 14.5547 21.3424 14.8098L15.5082 20.6413L31.25 20.6413Z" fill="black"/>
</svg>
