<svg width="44" height="44" viewBox="0 0 44 44" fill="none" xmlns="http://www.w3.org/2000/svg">
<path d="M22.2609 0.260871C28.0264 0.260871 33.5559 2.55124 37.6327 6.62811C41.7096 10.705 44 16.2344 44 22C44 27.7656 41.7096 33.295 37.6327 37.3719C33.5559 41.4488 28.0264 43.7391 22.2609 43.7391C16.4953 43.7391 10.9659 41.4488 6.88897 37.3719C2.81209 33.295 0.521728 27.7656 0.521728 22C0.521727 16.2344 2.81209 10.705 6.88897 6.62812C10.9658 2.55124 16.4953 0.260871 22.2609 0.260871ZM12.75 20.6413C12.3896 20.6413 12.0441 20.7845 11.7892 21.0393C11.5344 21.2941 11.3913 21.6397 11.3913 22C11.3913 22.3604 11.5344 22.7059 11.7892 22.9607C12.0441 23.2156 12.3896 23.3587 12.75 23.3587L28.4918 23.3587L22.6576 29.1902C22.4025 29.4453 22.2591 29.7914 22.2591 30.1522C22.2591 30.513 22.4025 30.859 22.6576 31.1141C22.9127 31.3693 23.2588 31.5126 23.6196 31.5126C23.9804 31.5126 24.3264 31.3693 24.5815 31.1141L32.7337 22.962C32.8602 22.8357 32.9606 22.6858 33.0291 22.5207C33.0976 22.3557 33.1329 22.1787 33.1329 22C33.1329 21.8213 33.0976 21.6443 33.0291 21.4793C32.9606 21.3142 32.8602 21.1643 32.7337 21.038L24.5815 12.8859C24.3264 12.6307 23.9804 12.4874 23.6196 12.4874C23.2588 12.4874 22.9127 12.6307 22.6576 12.8859C22.4025 13.141 22.2591 13.487 22.2591 13.8478C22.2591 14.2086 22.4025 14.5547 22.6576 14.8098L28.4918 20.6413L12.75 20.6413Z" fill="black"/>
</svg>
