<svg width="261" height="88" viewBox="0 0 261 88" fill="none" xmlns="http://www.w3.org/2000/svg">
<path d="M111.995 39.4565L105.976 54.4164C105.91 54.5815 105.82 54.7053 105.704 54.7879C105.588 54.8705 105.456 54.9117 105.308 54.9117C105.076 54.9117 104.903 54.8539 104.788 54.7384C104.672 54.6063 104.606 54.4494 104.589 54.2678C104.573 54.1852 104.581 54.0861 104.614 53.9705L111.153 37.9704C111.235 37.7888 111.335 37.6649 111.45 37.5989C111.582 37.5163 111.731 37.475 111.896 37.475C112.061 37.475 112.201 37.5246 112.317 37.6236C112.449 37.7062 112.548 37.8218 112.614 37.9704L119.128 53.8962C119.161 53.9953 119.178 54.0944 119.178 54.1935C119.178 54.4246 119.103 54.6063 118.955 54.7384C118.806 54.8539 118.633 54.9117 118.435 54.9117C118.27 54.9117 118.121 54.8705 117.989 54.7879C117.873 54.6888 117.782 54.565 117.716 54.4164L111.549 39.3574L111.995 39.4565ZM107.413 49.8838L108.032 48.4225H115.71L116.007 49.8838H107.413ZM123.499 54.1439C123.499 54.3421 123.424 54.5154 123.276 54.6641C123.127 54.8127 122.954 54.887 122.756 54.887C122.541 54.887 122.359 54.8127 122.211 54.6641C122.079 54.5154 122.013 54.3421 122.013 54.1439V37.3017C122.013 37.1035 122.087 36.9301 122.236 36.7815C122.384 36.6329 122.558 36.5586 122.756 36.5586C122.97 36.5586 123.144 36.6329 123.276 36.7815C123.424 36.9301 123.499 37.1035 123.499 37.3017V54.1439ZM132.606 41.9333C133.349 41.9333 134.034 42.0654 134.662 42.3296C135.289 42.5772 135.834 42.9075 136.297 43.3203C136.775 43.7166 137.147 44.1459 137.411 44.6082C137.675 45.0541 137.807 45.4834 137.807 45.8962L137.386 45.3017V42.9983C137.386 42.7836 137.452 42.602 137.584 42.4534C137.733 42.3048 137.915 42.2305 138.129 42.2305C138.361 42.2305 138.542 42.3048 138.674 42.4534C138.806 42.602 138.872 42.7836 138.872 42.9983V53.7229C138.872 55.0438 138.6 56.1584 138.055 57.0666C137.51 57.9747 136.767 58.66 135.826 59.1223C134.901 59.6011 133.844 59.8406 132.656 59.8406C132.078 59.8406 131.467 59.7663 130.823 59.6177C130.195 59.4691 129.65 59.2792 129.188 59.048C128.742 58.8168 128.495 58.5774 128.445 58.3297C128.313 58.1811 128.247 58.0325 128.247 57.8839C128.263 57.7518 128.338 57.6362 128.47 57.5371C128.635 57.4216 128.808 57.405 128.99 57.4876C129.172 57.5867 129.444 57.7105 129.807 57.8591C129.972 57.9087 130.195 57.983 130.476 58.082C130.757 58.1811 131.087 58.2637 131.467 58.3297C131.863 58.4123 132.276 58.4536 132.705 58.4536C134.191 58.4536 135.339 58.0242 136.148 57.1656C136.974 56.3235 137.386 55.2089 137.386 53.8219V51.4442L137.659 51.5185C137.51 52.1129 137.262 52.6331 136.916 53.0789C136.585 53.5247 136.189 53.9045 135.727 54.2182C135.265 54.5154 134.761 54.7384 134.216 54.887C133.688 55.0521 133.159 55.1346 132.631 55.1346C131.492 55.1346 130.468 54.8457 129.56 54.2678C128.651 53.6898 127.925 52.9055 127.38 51.9148C126.852 50.9241 126.587 49.793 126.587 48.5216C126.587 47.2667 126.852 46.1438 127.38 45.1531C127.925 44.1459 128.643 43.3616 129.535 42.8002C130.443 42.2222 131.467 41.9333 132.606 41.9333ZM132.779 43.3203C131.871 43.3203 131.054 43.5515 130.327 44.0138C129.617 44.4596 129.056 45.0788 128.643 45.8714C128.247 46.6475 128.049 47.5309 128.049 48.5216C128.049 49.5123 128.247 50.4039 128.643 51.1965C129.056 51.9891 129.617 52.6166 130.327 53.0789C131.054 53.5247 131.871 53.7476 132.779 53.7476C133.688 53.7476 134.497 53.5247 135.207 53.0789C135.917 52.6331 136.478 52.0221 136.891 51.2461C137.304 50.4535 137.51 49.5453 137.51 48.5216C137.51 47.4978 137.304 46.5979 136.891 45.8219C136.478 45.0293 135.917 44.4183 135.207 43.989C134.497 43.5432 133.688 43.3203 132.779 43.3203ZM154.092 48.5463C154.092 49.8013 153.82 50.9323 153.275 51.9396C152.73 52.9303 151.987 53.7146 151.046 54.2925C150.105 54.8539 149.031 55.1346 147.826 55.1346C146.653 55.1346 145.588 54.8539 144.631 54.2925C143.69 53.7146 142.938 52.9303 142.377 51.9396C141.832 50.9323 141.56 49.8013 141.56 48.5463C141.56 47.2749 141.832 46.1438 142.377 45.1531C142.938 44.1624 143.69 43.3781 144.631 42.8002C145.588 42.2222 146.653 41.9333 147.826 41.9333C149.031 41.9333 150.105 42.2222 151.046 42.8002C151.987 43.3781 152.73 44.1624 153.275 45.1531C153.82 46.1438 154.092 47.2749 154.092 48.5463ZM152.606 48.5463C152.606 47.5391 152.4 46.6475 151.987 45.8714C151.574 45.0788 151.004 44.4596 150.278 44.0138C149.568 43.5515 148.751 43.3203 147.826 43.3203C146.934 43.3203 146.125 43.5515 145.399 44.0138C144.672 44.4596 144.094 45.0788 143.665 45.8714C143.252 46.6475 143.046 47.5391 143.046 48.5463C143.046 49.5536 143.252 50.4452 143.665 51.2213C144.094 51.9974 144.672 52.6166 145.399 53.0789C146.125 53.5247 146.934 53.7476 147.826 53.7476C148.751 53.7476 149.568 53.5247 150.278 53.0789C151.004 52.6166 151.574 51.9974 151.987 51.2213C152.4 50.4452 152.606 49.5536 152.606 48.5463ZM162.526 41.9333C163.269 41.9333 163.954 42.0654 164.582 42.3296C165.209 42.5772 165.754 42.9075 166.217 43.3203C166.695 43.7166 167.067 44.1459 167.331 44.6082C167.595 45.0541 167.727 45.4834 167.727 45.8962L167.306 45.3017V42.9983C167.306 42.7836 167.372 42.602 167.504 42.4534C167.653 42.3048 167.835 42.2305 168.049 42.2305C168.281 42.2305 168.462 42.3048 168.594 42.4534C168.726 42.602 168.792 42.7836 168.792 42.9983V53.7229C168.792 55.0438 168.52 56.1584 167.975 57.0666C167.43 57.9747 166.687 58.66 165.746 59.1223C164.821 59.6011 163.764 59.8406 162.576 59.8406C161.998 59.8406 161.387 59.7663 160.743 59.6177C160.115 59.4691 159.57 59.2792 159.108 59.048C158.662 58.8168 158.415 58.5774 158.365 58.3297C158.233 58.1811 158.167 58.0325 158.167 57.8839C158.183 57.7518 158.258 57.6362 158.39 57.5371C158.555 57.4216 158.728 57.405 158.91 57.4876C159.092 57.5867 159.364 57.7105 159.727 57.8591C159.892 57.9087 160.115 57.983 160.396 58.082C160.677 58.1811 161.007 58.2637 161.387 58.3297C161.783 58.4123 162.196 58.4536 162.625 58.4536C164.111 58.4536 165.259 58.0242 166.068 57.1656C166.893 56.3235 167.306 55.2089 167.306 53.8219V51.4442L167.579 51.5185C167.43 52.1129 167.182 52.6331 166.836 53.0789C166.505 53.5247 166.109 53.9045 165.647 54.2182C165.184 54.5154 164.681 54.7384 164.136 54.887C163.608 55.0521 163.079 55.1346 162.551 55.1346C161.412 55.1346 160.388 54.8457 159.48 54.2678C158.571 53.6898 157.845 52.9055 157.3 51.9148C156.772 50.9241 156.507 49.793 156.507 48.5216C156.507 47.2667 156.772 46.1438 157.3 45.1531C157.845 44.1459 158.563 43.3616 159.455 42.8002C160.363 42.2222 161.387 41.9333 162.526 41.9333ZM162.699 43.3203C161.791 43.3203 160.974 43.5515 160.247 44.0138C159.537 44.4596 158.976 45.0788 158.563 45.8714C158.167 46.6475 157.969 47.5309 157.969 48.5216C157.969 49.5123 158.167 50.4039 158.563 51.1965C158.976 51.9891 159.537 52.6166 160.247 53.0789C160.974 53.5247 161.791 53.7476 162.699 53.7476C163.608 53.7476 164.417 53.5247 165.127 53.0789C165.837 52.6331 166.398 52.0221 166.811 51.2461C167.224 50.4535 167.43 49.5453 167.43 48.5216C167.43 47.4978 167.224 46.5979 166.811 45.8219C166.398 45.0293 165.837 44.4183 165.127 43.989C164.417 43.5432 163.608 43.3203 162.699 43.3203ZM177.944 55.1346C176.673 55.1346 175.55 54.8622 174.576 54.3173C173.601 53.7724 172.842 53.0128 172.297 52.0386C171.752 51.0644 171.48 49.9251 171.48 48.6206C171.48 47.2171 171.752 46.02 172.297 45.0293C172.858 44.0386 173.577 43.279 174.452 42.7506C175.343 42.2057 176.285 41.9333 177.275 41.9333C178.002 41.9333 178.704 42.0654 179.381 42.3296C180.074 42.5772 180.685 42.957 181.213 43.4689C181.758 43.9643 182.188 44.5752 182.501 45.3017C182.832 46.0283 183.013 46.8704 183.046 47.8281C183.03 48.0262 182.947 48.1996 182.799 48.3482C182.65 48.4803 182.477 48.5463 182.278 48.5463H172.346L172.049 47.2089H181.808L181.486 47.5061V47.0107C181.42 46.2347 181.172 45.5742 180.743 45.0293C180.313 44.4844 179.793 44.0716 179.182 43.7909C178.571 43.5102 177.936 43.3698 177.275 43.3698C176.78 43.3698 176.268 43.4689 175.74 43.667C175.228 43.8652 174.757 44.1789 174.328 44.6082C173.915 45.021 173.577 45.5577 173.312 46.2181C173.048 46.8621 172.916 47.6299 172.916 48.5216C172.916 49.4958 173.114 50.3792 173.51 51.1718C173.907 51.9643 174.476 52.5918 175.219 53.0541C175.979 53.5165 176.879 53.7476 177.919 53.7476C178.497 53.7476 179.017 53.6651 179.48 53.5C179.942 53.3348 180.346 53.1202 180.693 52.856C181.04 52.5753 181.329 52.2863 181.56 51.9891C181.742 51.8405 181.923 51.7662 182.105 51.7662C182.27 51.7662 182.41 51.8322 182.526 51.9643C182.658 52.0964 182.724 52.245 182.724 52.4102C182.724 52.6083 182.642 52.7817 182.477 52.9303C181.981 53.5247 181.337 54.0448 180.545 54.4907C179.752 54.92 178.885 55.1346 177.944 55.1346ZM191.924 42.1314C192.948 42.1314 193.823 42.4039 194.549 42.9488C195.276 43.4772 195.771 44.2697 196.035 45.3265L195.689 45.4256L195.837 44.9797C196.052 44.4844 196.407 44.022 196.902 43.5927C197.414 43.1469 197.992 42.7919 198.636 42.5277C199.28 42.2635 199.932 42.1314 200.593 42.1314C201.633 42.1314 202.467 42.3543 203.094 42.8002C203.738 43.246 204.2 43.8487 204.481 44.6082C204.778 45.3513 204.927 46.1934 204.927 47.1346V54.1439C204.927 54.3421 204.853 54.5154 204.704 54.6641C204.572 54.8127 204.399 54.887 204.184 54.887C203.969 54.887 203.788 54.8127 203.639 54.6641C203.507 54.5154 203.441 54.3421 203.441 54.1439V47.2089C203.441 46.5319 203.334 45.9127 203.119 45.3513C202.904 44.7899 202.566 44.344 202.103 44.0138C201.641 43.6836 201.022 43.5184 200.246 43.5184C199.569 43.5184 198.917 43.6836 198.289 44.0138C197.678 44.344 197.175 44.7899 196.778 45.3513C196.399 45.9127 196.209 46.5319 196.209 47.2089V54.1439C196.209 54.3421 196.134 54.5154 195.986 54.6641C195.854 54.8127 195.68 54.887 195.466 54.887C195.251 54.887 195.069 54.8127 194.921 54.6641C194.789 54.5154 194.723 54.3421 194.723 54.1439V47.1346C194.723 46.4576 194.624 45.8466 194.425 45.3017C194.227 44.7568 193.905 44.3275 193.459 44.0138C193.014 43.6836 192.411 43.5184 191.651 43.5184C190.974 43.5184 190.33 43.6836 189.719 44.0138C189.125 44.3275 188.638 44.7568 188.258 45.3017C187.895 45.8466 187.713 46.4576 187.713 47.1346V54.1439C187.713 54.3421 187.639 54.5154 187.49 54.6641C187.342 54.8127 187.168 54.887 186.97 54.887C186.739 54.887 186.557 54.8127 186.425 54.6641C186.293 54.5154 186.227 54.3421 186.227 54.1439V43.0478C186.227 42.8497 186.293 42.6763 186.425 42.5277C186.574 42.3791 186.756 42.3048 186.97 42.3048C187.185 42.3048 187.358 42.3791 187.49 42.5277C187.639 42.6763 187.713 42.8497 187.713 43.0478V45.3513L187.044 46.2677C187.094 45.7723 187.251 45.277 187.515 44.7816C187.796 44.2862 188.159 43.8404 188.605 43.4441C189.051 43.0478 189.554 42.7341 190.116 42.5029C190.694 42.2553 191.296 42.1314 191.924 42.1314ZM208.1 52.8808C207.968 52.6826 207.902 52.4927 207.902 52.3111C207.918 52.1129 208.026 51.9561 208.224 51.8405C208.356 51.7249 208.505 51.6754 208.67 51.6919C208.851 51.7084 209.016 51.791 209.165 51.9396C209.611 52.5175 210.148 52.9881 210.775 53.3513C211.419 53.6981 212.178 53.8715 213.054 53.8715C213.516 53.8715 213.97 53.7972 214.416 53.6486C214.878 53.4834 215.258 53.244 215.555 52.9303C215.852 52.6 216.001 52.1872 216.001 51.6919C216.001 51.18 215.852 50.7672 215.555 50.4535C215.258 50.1398 214.87 49.8921 214.391 49.7104C213.929 49.5288 213.433 49.3719 212.905 49.2398C212.344 49.0912 211.799 48.9261 211.27 48.7445C210.742 48.5463 210.271 48.3069 209.859 48.0262C209.462 47.729 209.14 47.374 208.893 46.9612C208.645 46.5484 208.521 46.0448 208.521 45.4503C208.521 44.7568 208.711 44.1459 209.091 43.6175C209.471 43.0891 209.982 42.6763 210.626 42.3791C211.287 42.0819 212.03 41.9333 212.855 41.9333C213.268 41.9333 213.714 41.9911 214.193 42.1067C214.672 42.2057 215.142 42.3791 215.605 42.6268C216.067 42.8745 216.48 43.213 216.843 43.6423C216.992 43.7909 217.066 43.9643 217.066 44.1624C217.066 44.344 216.983 44.5092 216.818 44.6578C216.686 44.7568 216.529 44.8064 216.348 44.8064C216.183 44.8064 216.042 44.7403 215.927 44.6082C215.53 44.1624 215.06 43.8239 214.515 43.5927C213.97 43.3616 213.384 43.246 212.756 43.246C212.278 43.246 211.823 43.3285 211.394 43.4937C210.981 43.6423 210.635 43.8734 210.354 44.1872C210.073 44.5009 209.933 44.9137 209.933 45.4256C209.966 45.9044 210.131 46.2925 210.428 46.5897C210.742 46.8869 211.146 47.1346 211.642 47.3327C212.154 47.5309 212.723 47.7125 213.351 47.8776C213.879 48.0097 214.383 48.1666 214.862 48.3482C215.357 48.5298 215.786 48.761 216.15 49.0417C216.529 49.3059 216.827 49.6444 217.041 50.0572C217.272 50.47 217.388 50.9901 217.388 51.6176C217.388 52.3441 217.182 52.9716 216.769 53.5C216.373 54.0283 215.836 54.4329 215.159 54.7136C214.482 54.9943 213.731 55.1346 212.905 55.1346C212.013 55.1346 211.146 54.9613 210.304 54.6145C209.479 54.2678 208.744 53.6898 208.1 52.8808Z" fill="white"/>
<rect x="0.8297" y="0.830188" width="259.019" height="86.3396" rx="2.49056" stroke="white" stroke-width="1.66038"/>
<mask id="mask0_38_815" style="mask-type:alpha" maskUnits="userSpaceOnUse" x="43" y="18" width="57" height="51">
<path d="M71.3895 68.1948C66.0073 68.1948 43.7629 41.2093 43.7629 37.277C43.7629 33.3447 48.2826 23.45 52.537 20.7591C56.7915 18.0682 84.3462 18.0682 90.96 20.7591C97.5738 23.45 99.7447 33.3433 99.603 37.277C99.4614 41.2107 76.7717 68.1948 71.3895 68.1948Z" fill="white"/>
</mask>
<g mask="url(#mask0_38_815)">
<path d="M71.3895 68.1948C66.0073 68.1948 43.7629 41.2093 43.7629 37.277C43.7629 33.3447 48.2826 23.45 52.537 20.7591C56.7915 18.0682 84.3462 18.0682 90.96 20.7591C97.5738 23.45 99.7447 33.3433 99.603 37.277C99.4614 41.2107 76.7717 68.1948 71.3895 68.1948Z" fill="url(#paint0_linear_38_815)"/>
<path fill-rule="evenodd" clip-rule="evenodd" d="M61.2328 42.8965L71.4336 69.7554L82.1431 42.7324L70.8989 43.5069L61.2328 42.8965Z" fill="url(#paint1_linear_38_815)"/>
<path fill-rule="evenodd" clip-rule="evenodd" d="M91.1141 20.429L100.261 23.8707L99.6674 37.5191L82.1431 42.7324L71.7504 23.2773L91.1141 20.429Z" fill="url(#paint2_linear_38_815)"/>
<path fill-rule="evenodd" clip-rule="evenodd" d="M81.9814 42.3629L71.1702 69.5634C77.3163 67.2122 83.1303 62.8371 88.6123 56.438C94.0943 50.0389 98.3561 43.2605 101.398 36.1028C97.8464 37.8304 94.4927 39.1823 91.3365 40.1586C88.1803 41.1349 85.0619 41.8697 81.9814 42.3629Z" fill="url(#paint3_linear_38_815)"/>
<path fill-rule="evenodd" clip-rule="evenodd" d="M71.4528 22.9043L61.4619 42.8402C64.6209 43.2654 67.9448 43.4779 71.4336 43.4779C74.9224 43.4779 78.4184 43.1576 81.9217 42.5168L71.4528 22.9043Z" fill="url(#paint4_linear_38_815)"/>
<path d="M42.2172 36.3762C50.6244 41.2897 60.3632 43.6536 71.4336 43.468C82.5039 43.2824 92.4715 40.9184 101.336 36.3762" stroke="url(#paint5_linear_38_815)" stroke-width="0.629885" stroke-linecap="round" stroke-linejoin="round"/>
<path fill-rule="evenodd" clip-rule="evenodd" d="M52.537 20.7593L71.4336 69.7554L90.96 20.7593C84.2422 22.2593 77.7334 23.0094 71.4336 23.0094C65.1338 23.0094 58.835 22.2593 52.537 20.7593Z" stroke="url(#paint6_radial_38_815)" stroke-width="0.629885" stroke-linecap="round" stroke-linejoin="round"/>
<path fill-rule="evenodd" clip-rule="evenodd" d="M61.2856 42.5394C58.6724 42.2551 55.6864 41.5644 52.3277 40.4674C48.969 39.3704 45.6153 37.945 42.2666 36.1912C45.8299 43.4706 49.8369 49.689 54.2875 54.8464C58.7381 60.0038 64.5275 64.9095 71.6556 69.5636L61.2856 42.5394Z" fill="url(#paint7_linear_38_815)"/>
<path fill-rule="evenodd" clip-rule="evenodd" d="M71.6555 18.7409C62.4436 18.6618 52.0486 19.0323 51.9872 20.2076C51.9264 21.3828 62.088 23.2251 71.3948 23.3051C80.7016 23.3851 91.5234 21.501 91.5774 20.4657C91.631 19.4303 80.8675 18.8201 71.6555 18.7409Z" fill="url(#paint8_linear_38_815)"/>
</g>
<defs>
<linearGradient id="paint0_linear_38_815" x1="52.7449" y1="25.928" x2="82.3453" y2="56.1992" gradientUnits="userSpaceOnUse">
<stop stop-color="white"/>
<stop offset="1" stop-color="white"/>
</linearGradient>
<linearGradient id="paint1_linear_38_815" x1="67.5287" y1="47.3696" x2="75.8194" y2="50.6208" gradientUnits="userSpaceOnUse">
<stop stop-color="white" stop-opacity="0.426573"/>
<stop offset="1" stop-color="#FEFEFE"/>
</linearGradient>
<linearGradient id="paint2_linear_38_815" x1="80.0894" y1="28.3891" x2="92.2298" y2="32.7555" gradientUnits="userSpaceOnUse">
<stop stop-color="white" stop-opacity="0.426573"/>
<stop offset="1" stop-color="#F3F3F3"/>
</linearGradient>
<linearGradient id="paint3_linear_38_815" x1="70.6745" y1="40.0319" x2="89.68" y2="49.7515" gradientUnits="userSpaceOnUse">
<stop stop-color="#FEFEFE" stop-opacity="0"/>
<stop offset="1" stop-color="#DEDEDE" stop-opacity="0.328671"/>
</linearGradient>
<linearGradient id="paint4_linear_38_815" x1="71.6918" y1="41.9101" x2="71.6918" y2="22.9043" gradientUnits="userSpaceOnUse">
<stop stop-color="white" stop-opacity="0.545455"/>
<stop offset="1" stop-color="#F0F0F0" stop-opacity="0.0979021"/>
</linearGradient>
<linearGradient id="paint5_linear_38_815" x1="43.9522" y1="37.4004" x2="99.311" y2="37.4004" gradientUnits="userSpaceOnUse">
<stop stop-color="#FCFEFF"/>
<stop offset="0.508584" stop-color="#F7FBFE"/>
<stop offset="1" stop-color="#F4F4F4"/>
</linearGradient>
<radialGradient id="paint6_radial_38_815" cx="0" cy="0" r="1" gradientUnits="userSpaceOnUse" gradientTransform="translate(31.7899 43.915) rotate(90) scale(27.828 26.3346)">
<stop stop-color="white"/>
<stop offset="1" stop-color="#FDFDFD" stop-opacity="0.153846"/>
</radialGradient>
<linearGradient id="paint7_linear_38_815" x1="60.7279" y1="40.9055" x2="51.6495" y2="60.0566" gradientUnits="userSpaceOnUse">
<stop stop-color="#FEFEFE"/>
<stop offset="1" stop-color="#F5F5F5" stop-opacity="0.0979021"/>
</linearGradient>
<linearGradient id="paint8_linear_38_815" x1="71.7823" y1="23.3076" x2="71.7823" y2="12.2596" gradientUnits="userSpaceOnUse">
<stop stop-color="#FCFCFC" stop-opacity="0.461538"/>
<stop offset="1" stop-color="white" stop-opacity="0"/>
</linearGradient>
</defs>
</svg>
