<svg width="46" height="46" viewBox="0 0 46 46" fill="none" xmlns="http://www.w3.org/2000/svg">
<rect width="46" height="46" rx="23" fill="white"/>
<path d="M26.9817 12.1055C26.6958 12.6175 26.441 13.1464 26.2186 13.6891C24.0343 13.3437 21.8092 13.3437 19.6249 13.6891C19.4026 13.1464 19.1477 12.6175 18.8618 12.1055C16.8042 12.457 14.8039 13.0867 12.9159 13.9771C9.53973 18.8494 8.00861 24.7646 8.59682 30.6631C10.797 32.3171 13.2664 33.5786 15.8961 34.3919C16.4948 33.6009 17.0292 32.7632 17.4941 31.8868C16.6362 31.5705 15.8115 31.1703 15.0322 30.6919C15.246 30.5497 15.4482 30.3908 15.6369 30.2168C17.9094 31.3114 20.3994 31.8798 22.9218 31.8798C25.4441 31.8798 27.9341 31.3114 30.2066 30.2168C30.4081 30.3896 30.6097 30.5479 30.8113 30.6919C30.0277 31.1665 29.2039 31.5712 28.3494 31.9012C28.795 32.7975 29.3151 33.6547 29.9043 34.4639C32.5306 33.6534 34.9958 32.3916 37.1891 30.7351C37.7914 24.8355 36.2591 18.9155 32.87 14.0491C31.0032 13.1402 29.0227 12.4865 26.9817 12.1055ZM18.142 27.2942C17.4215 27.2425 16.7491 26.9137 16.2659 26.3768C15.7827 25.8399 15.5263 25.1367 15.5505 24.4148C15.5227 23.692 15.7778 22.9868 16.2618 22.4491C16.7457 21.9114 17.4202 21.5836 18.142 21.5355C18.8637 21.5836 19.5383 21.9114 20.0222 22.4491C20.5061 22.9868 20.7613 23.692 20.7334 24.4148C20.7613 25.1377 20.5061 25.8429 20.0222 26.3806C19.5383 26.9183 18.8637 27.246 18.142 27.2942ZM27.7015 27.2942C26.9811 27.2425 26.3087 26.9137 25.8255 26.3768C25.3423 25.8399 25.0859 25.1367 25.1101 24.4148C25.0822 23.692 25.3374 22.9868 25.8213 22.4491C26.3052 21.9114 26.9798 21.5836 27.7015 21.5355C28.4246 21.58 29.1014 21.9068 29.586 22.4453C30.0707 22.9838 30.3245 23.691 30.293 24.4148C30.3245 25.1386 30.0707 25.8459 29.586 26.3844C29.1014 26.9229 28.4246 27.2496 27.7015 27.2942Z" fill="#050505"/>
</svg>
