<svg width="32" height="32" viewBox="0 0 32 32" fill="none" xmlns="http://www.w3.org/2000/svg">
<rect width="32" height="32" rx="16" fill="white"/>
<path d="M9.09163 11.1768L9.09242 11.176C9.52059 10.7563 10.0254 10.4228 10.5794 10.1936L10.5807 10.193C11.1556 9.95419 11.7722 9.83195 12.3948 9.83339L12.3971 9.83339C13.2734 9.83339 14.1264 10.0732 14.8669 10.525L14.867 10.525C15.0441 10.6331 15.2117 10.7513 15.3701 10.8798L16 11.3907L16.63 10.8798C16.7883 10.7513 16.9559 10.6331 17.1331 10.525L17.1331 10.525C17.8736 10.0732 18.7267 9.83339 19.6029 9.83339C20.2357 9.83339 20.8443 9.95415 21.4193 10.193L21.4204 10.1935C21.9767 10.4238 22.4771 10.7544 22.9079 11.1763L22.9093 11.1777C23.3355 11.5936 23.6761 12.0891 23.9115 12.6361L9.09163 11.1768ZM9.09163 11.1768C8.66532 11.5938 8.32441 12.0899 8.08798 12.6373C7.84327 13.2064 7.71916 13.8075 7.72091 14.4272V14.4301C7.72091 15.0086 7.83902 15.6331 8.09108 16.2922L8.09194 16.2945M9.09163 11.1768L8.09194 16.2945M20.2545 21.1268L20.2544 21.1269C19.2921 22.0155 18.3307 22.7701 17.5978 23.3096C17.2321 23.5789 16.9252 23.7931 16.7062 23.9423C16.5967 24.0168 16.5094 24.0749 16.4481 24.1152C16.3962 24.1493 16.3671 24.1679 16.3589 24.1731C16.3568 24.1745 16.3561 24.1749 16.3568 24.1745L16.3489 24.1794L16.341 24.1844L16.0011 24.4024L15.6612 24.1844L15.661 24.1843C15.597 24.1433 13.6809 22.9101 11.7477 21.1268H20.2545ZM20.2545 21.1268C21.4164 20.054 22.3288 19.0169 22.979 18.0475L20.2545 21.1268ZM8.09194 16.2945C8.30057 16.844 8.61213 17.434 9.02332 18.0478L8.09194 16.2945ZM24.2813 14.4301C24.2813 13.808 24.1566 13.2056 23.9116 12.6362L23.9113 16.2917C24.1632 15.6328 24.2813 15.0084 24.2813 14.4301ZM22.9791 18.0474C23.3889 17.4357 23.6993 16.8449 23.9111 16.2922L22.9791 18.0474ZM9.0234 18.0479C9.67356 19.0171 10.5857 20.054 11.7474 21.1265L9.0234 18.0479Z" stroke="black" stroke-width="2"/>
</svg>
