<svg width="46" height="46" viewBox="0 0 46 46" fill="none" xmlns="http://www.w3.org/2000/svg">
<rect width="46" height="46" rx="23" fill="white"/>
<path d="M17.9028 35.1051C20.2045 35.1196 22.4861 34.6769 24.6153 33.8028C26.7445 32.9287 28.679 31.6405 30.3065 30.013C31.934 28.3854 33.2222 26.451 34.0963 24.3217C34.9705 22.1925 35.4131 19.9109 35.3986 17.6093V16.8054C36.5917 15.9312 37.6244 14.8571 38.4509 13.6305C37.3274 14.1218 36.1387 14.4477 34.9217 14.5979C36.212 13.8291 37.1801 12.619 37.6469 11.1914C36.4445 11.9129 35.1259 12.42 33.7499 12.6903C32.8232 11.7029 31.597 11.0484 30.2609 10.8281C28.9248 10.6079 27.5534 10.834 26.3588 11.4717C25.1642 12.1093 24.213 13.1229 23.6525 14.3555C23.0919 15.5882 22.9532 16.9712 23.2579 18.2906C20.8134 18.1706 18.4216 17.5371 16.2382 16.4313C14.0549 15.3256 12.1289 13.7723 10.5857 11.8727C9.80751 13.2233 9.57165 14.8191 9.92584 16.3371C10.28 17.855 11.1978 19.1816 12.4933 20.0483C11.5376 20.0115 10.604 19.7501 9.7681 19.2853V19.3534C9.75961 20.7648 10.2351 22.1366 11.1153 23.2399C11.9955 24.3433 13.2273 25.1117 14.6053 25.417C13.7164 25.6561 12.7853 25.6933 11.8801 25.526C12.2791 26.7297 13.0406 27.7805 14.0604 28.5343C15.0801 29.2881 16.308 29.708 17.5758 29.7364C15.4082 31.4813 12.7142 32.4417 9.93162 32.4616C9.44374 32.4475 8.95701 32.4066 8.47363 32.339C11.2901 34.1334 14.5634 35.0795 17.9028 35.0642" fill="black"/>
</svg>
